<svg xmlns="http://www.w3.org/2000/svg" width="26" height="26"><g transform="translate(0 -1026.362)"><circle cx="13" cy="1039.362" r="13" fill="#1d67b1"/><path style="line-height:normal;text-indent:0;text-align:start;text-decoration-line:none;text-decoration-style:solid;text-decoration-color:#000;text-transform:none;block-progression:tb;isolation:auto;mix-blend-mode:normal" fill="#fff" d="M8.943 2.016v.002A5.492 5.492 0 0 0 5.271 3.06c-2.127 1.558-2.79 4.4-1.646 6.746l-.021.293-1.555 3.185a.503.5 0 0 0 .681.662l3.237-1.638.15-.016c2.352 1.147 5.211.508 6.793-1.592a5.421 5.421 0 0 0-.502-7.096 5.476 5.476 0 0 0-3.465-1.59Zm-.078.994a4.474 4.474 0 0 1 2.83 1.3 4.414 4.414 0 0 1 .409 5.792 4.486 4.486 0 0 1-5.71 1.246.503.5 0 0 0-.285-.059l-.326.03a.503.5 0 0 0-.185.052L3.609 12.38l.944-1.932a.503.5 0 0 0 .049-.185l.03-.467a.503.5 0 0 0-.058-.268 4.416 4.416 0 0 1 1.295-5.66 4.482 4.482 0 0 1 2.996-.857Z" color="#000" font-family="sans-serif" font-weight="400" overflow="visible" transform="translate(5 1031.36)"/></g></svg>